#!OML:ASF G:\ViconDB\ViconDB\414\test\team2\shane.ASF
:FULLY-SPECIFIED
:DEGREES
264
root 9.5259 16.6978 9.08933 -151.199 72.6499 -144.011
lowerback 5.96851 3.8219 6.87769
upperback 1.35561 5.57426 0.593726
thorax -1.33984 2.79226 -3.58643
lowerneck -14.4073 -3.76512 -3.68475
upperneck 24.0947 -5.2602 5.25884
head 10.3184 -1.95303 1.82681
rclavicle -3.24019e-014 3.18055e-015
rhumerus -17.7633 11.4891 -93.8067
rradius 40.4882
rwrist 32.7017
rhand -31.5692 -12.4927
rfingers 7.12502
rthumb -4.83278 -42.4175
lclavicle -3.24019e-014 3.18055e-015
lhumerus -51.9609 6.5828 65.9476
lradius 10.368
lwrist -36.1907
lhand -36.088 6.03234
lfingers 7.12502
lthumb -9.19471 35.8119
rfemur 29.8872 -16.6086 13.1226
rtibia 13.0088
rfoot -1.97985 -0.545259
rtoes -31.5521
lfemur -16.2495 22.5982 -12.7513
ltibia 32.5692
lfoot -17.9219 -13.1273
ltoes -6.33909
265
root 9.67647 16.71 9.006 -153.344 72.2376 -145.975
lowerback 5.93307 3.72837 6.48529
upperback 1.42651 5.41817 0.517595
thorax -1.29298 2.71839 -3.43557
lowerneck -14.7547 -3.73831 -3.94732
upperneck 24.3447 -5.23795 5.58743
head 10.4935 -1.9157 1.99054
rclavicle 2.48232e-014 1.59028e-014
rhumerus -18.3145 10.9914 -93.8956
rradius 40.2351
rwrist 32.9767
rhand -31.3501 -12.4297
rfingers 7.12502
rthumb -4.62123 -42.3593
lclavicle 2.48232e-014 1.59028e-014
lhumerus -51.8117 6.94008 66.1061
lradius 10.4761
lwrist -36.3826
lhand -35.6187 5.93358
lfingers 7.12502
lthumb -8.74188 35.7325
rfemur 28.0374 -16.5917 12.202
rtibia 18.2395
rfoot -1.55646 0.337227
rtoes -31.7027
lfemur -15.2914 21.7191 -12.9721
ltibia 32.4118
lfoot -17.6406 -13.1925
ltoes -5.65264
266
root 9.82524 16.7242 8.92115 -155.134 71.7509 -147.566
lowerback 6.0051 3.65642 6.2676
upperback 1.37381 5.31284 0.437962
thorax -1.41103 2.66018 -3.401
lowerneck -14.7975 -3.75961 -4.06297
upperneck 24.5123 -5.27843 5.75601
head 10.5743 -1.91676 2.06747
rclavicle 4.55217e-014 5.56597e-015
rhumerus -19.1942 10.2451 -94.0105
rradius 39.9321
rwrist 33.0585
rhand -31.3793 -12.1927
rfingers 7.12502
rthumb -4.64941 -42.1217
lclavicle 4.55217e-014 5.56597e-015
lhumerus -51.7149 7.02088 66.3511
lradius 10.6298
lwrist -36.4341
lhand -35.3314 5.66196
lfingers 7.12502
lthumb -8.4646 35.4723
rfemur 26.343 -16.4437 11.4988
rtibia 22.9371
rfoot -0.585473 1.50416
rtoes -30.489
lfemur -14.3341 21.8621 -13.139
ltibia 32.1591
lfoot -17.8158 -14.1391
ltoes -5.31296
267
root 9.96173 16.7404 8.83809 -157.053 71.2398 -149.292
lowerback 6.05524 3.56284 5.9013
upperback 1.50004 5.16648 0.414787
thorax -1.35385 2.59351 -3.21374
lowerneck -15.2206 -3.69184 -4.07502
upperneck 24.6174 -5.17094 5.7233
head 10.6887 -1.86625 2.06893
rclavicle -6.44311e-014 1.51076e-014
rhumerus -19.7734 9.79074 -93.9651
rradius 39.6878
rwrist 33.178
rhand -31.1984 -12.3733
rfingers 7.12502
rthumb -4.47468 -42.306
lclavicle -6.44311e-014 1.51076e-014
lhumerus -51.1663 6.72095 67.5264
lradius 10.8114
lwrist -34.928
lhand -35.1344 5.39183
lfingers 7.12502
lthumb -8.27446 35.2098
rfemur 24.709 -16.3057 10.7795
rtibia 27.3176
rfoot 0.777278 2.49
rtoes -28.3655
lfemur -13.2953 21.184 -13.3497
ltibia 31.7616
lfoot -17.7477 -14.3763
ltoes -4.35819
268
root 10.0969 16.7594 8.75275 -158.763 70.8194 -150.844
lowerback 6.19465 3.49506 5.60136
upperback 1.52149 5.06568 0.37278
thorax -1.44147 2.54155 -3.09597
lowerneck -15.3458 -3.68029 -4.41355
upperneck 24.6911 -5.12012 5.94284
head 10.7538 -1.84446 2.21282
rclavicle 1.05729e-014 1.11319e-014
rhumerus -20.5793 9.20069 -93.9431
rradius 39.4815
rwrist 33.1345
rhand -30.8549 -12.2356
rfingers 7.12502
rthumb -4.14305 -42.1751
lclavicle 1.05729e-014 1.11319e-014
lhumerus -50.7016 6.70833 68.3236
lradius 11.0442
lwrist -34.8295
lhand -34.7746 5.89545
lfingers 7.12502
lthumb -7.92721 35.7268
rfemur 22.9768 -15.9284 10.21
rtibia 31.4913
rfoot 2.23173 3.41287
rtoes -26.0326
lfemur -12.2634 21.2366 -13.6227
ltibia 31.2605
lfoot -17.8218 -15.1022
ltoes -3.76745
269
root 10.2258 16.7823 8.67305 -160.374 70.2775 -152.27
lowerback 6.3937 3.37899 5.24225
upperback 1.61095 4.90273 0.436985
thorax -1.51108 2.46187 -2.83355
lowerneck -15.6979 -3.56853 -4.61733
upperneck 24.8567 -4.88109 5.85632
head 10.8724 -1.75866 2.24893
rclavicle -1.61885e-014 -9.54166e-015
rhumerus -21.3053 9.07387 -93.8107
rradius 39.3308
rwrist 32.6249
rhand -30.7477 -12.4741
rfingers 7.12502
rthumb -4.03954 -42.4155
lclavicle -1.61885e-014 -9.54166e-015
lhumerus -50.1786 6.5828 69.4237
lradius 11.4021
lwrist -33.8908
lhand -34.7756 5.43686
lfingers 7.12502
lthumb -7.92817 35.2682
rfemur 21.2376 -15.6283 9.79863
rtibia 35.4956
rfoot 4.04712 4.47171
rtoes -22.2969
lfemur -11.1434 20.6646 -13.8157
ltibia 30.6242
lfoot -17.8296 -15.1759
ltoes -3.46749
270
root 10.3519 16.8028 8.59048 -162.152 69.7468 -153.872
lowerback 6.67553 3.26901 4.9693
upperback 1.62074 4.75235 0.312573
thorax -1.68228 2.38299 -2.82117
lowerneck -15.7652 -3.51977 -4.45068
upperneck 24.7698 -4.79537 5.62314
head 10.8368 -1.73504 2.14569
rclavicle 7.688e-014 -3.57812e-014
rhumerus -22.1102 8.71192 -93.864
rradius 39.0626
rwrist 32.4161
rhand -30.6184 -12.3814
rfingers 7.12502
rthumb -3.91469 -42.3252
lclavicle 7.688e-014 -3.57812e-014
lhumerus -49.4749 6.85869 69.7699
lradius 11.6425
lwrist -33.8011
lhand -34.4477 5.21244
lfingers 7.12502
lthumb -7.61167 35.0555
rfemur 19.542 -15.4295 9.24561
rtibia 39.2543
rfoot 5.97522 5.72966
rtoes -18.7771
lfemur -10.0001 20.7253 -14.1088
ltibia 29.8932
lfoot -17.9674 -15.8442
ltoes -3.50367
